<svg width="1080" height="1080" viewBox="0 0 1080 1080" fill="none" xmlns="http://www.w3.org/2000/svg">
<path d="M798.896 585.984C723.5 648.5 650 596 580 551.435C509.5 499.87 416 440.5 335.5 448C395.011 414.187 477.5 422 524.5 446.5C578.671 474.738 651.5 527.5 675 542.5C698.5 557.5 739 593 798.896 585.984Z" fill="white"/>
<path d="M239.25 503.5C258.878 484.628 282.263 473.621 308.482 470.416C356.903 464.497 413.5 483 446 499C478.5 515 573.5 578 583.5 585.5C593.5 593 595.808 594.669 600.5 598.5C554.5 580.5 499.042 546.47 450 531C424.306 522.895 396.015 516.501 369 515C320.465 512.303 256.098 532.789 257.049 584.394C258 636 288.774 657 329.5 657C319.5 664 303.794 666.423 289 664.952C247.716 660.848 217.653 630.564 211.045 592.133C205.058 557.308 213.87 529.526 239.25 503.5Z" fill="white"/>
<path d="M748.5 549.5C713.5 537 679.5 514.42 648.478 494C617.456 473.58 601.058 459.944 578 448C536.888 426.704 504.5 411.643 455.819 411.643C483.225 398.574 509.244 394.178 540 395C574.403 395.92 607.628 406.916 637 425C672.105 446.613 698.007 464.931 732.5 487.5C769.166 511.49 801.235 534.085 846.5 535.5C814.5 566 772.997 558.249 748.5 549.5Z" fill="white"/>
</svg>
